<svg width="5076" height="1559" viewBox="0 0 5076 1559" fill="none" xmlns="http://www.w3.org/2000/svg">
<path fill-rule="evenodd" clip-rule="evenodd" d="M758.251 2.49311L4346.23 71.1865C4755.18 79.0265 5083.36 420.026 5075.53 828.977V828.978C5067.71 1237.93 4726.71 1566.12 4317.75 1558.29L729.776 1489.59C320.824 1481.76 -7.36551 1140.75 0.465153 731.8C8.29582 322.853 349.3 -5.34689 758.251 2.49311Z" fill="#BDBBBC"/>
<path fill-rule="evenodd" clip-rule="evenodd" d="M743.685 -5.783e-05H4332.32C4741.35 -5.783e-05 5076 334.667 5076 743.688C5076 1152.71 4741.35 1487.37 4332.32 1487.37H743.685C334.657 1487.37 0 1152.71 0 743.688C0 334.667 334.657 -5.783e-05 743.685 -5.783e-05Z" fill="#F5F4F4"/>
<path d="M1785.99 1157.87H1692.04V766.857H1785.99V1157.87ZM2178 1157.87H2084.33L1945.75 914.517V1157.87H1851.52V766.857H1945.75L2084.05 1010.21V766.857H2178V1157.87ZM2237.68 1157.87V766.857H2363.61C2398.16 766.857 2429.24 774.648 2456.83 790.321C2484.41 805.996 2505.96 828.084 2521.36 856.681C2536.84 885.279 2544.72 917.266 2544.91 952.738V970.702C2544.91 1006.45 2537.31 1038.62 2522.17 1066.94C2507.05 1095.36 2485.79 1117.54 2458.29 1133.58C2430.8 1149.62 2400.19 1157.68 2366.36 1157.87H2237.68ZM2331.99 839.451V1085.27H2364.71C2391.75 1085.27 2412.56 1075.65 2427.04 1056.4C2441.52 1037.15 2448.76 1008.56 2448.76 970.52V953.654C2448.76 915.8 2441.52 887.386 2427.04 868.23C2412.56 849.074 2391.39 839.451 2363.61 839.451H2331.99ZM2693.67 1157.87H2599.72V766.857H2693.67V1157.87ZM2986.05 1084.72H2856.91L2834.36 1157.87H2733.63L2877.08 766.857H2965.61L3110.16 1157.87H3008.88L2986.05 1084.72ZM2879.45 1012.13H2963.51L2921.35 876.388L2879.45 1012.13Z" fill="#231F20"/>
<path d="M774.799 73.6932C959.813 73.6932 1127.31 148.68 1248.56 269.92C1369.8 391.173 1444.8 558.68 1444.8 743.688C1444.8 928.7 1369.8 1096.2 1248.56 1217.45C1127.31 1338.69 959.812 1413.69 774.799 1413.69C589.785 1413.69 422.285 1338.69 301.039 1217.45C179.792 1096.2 104.799 928.701 104.799 743.688C104.799 558.68 179.792 391.173 301.039 269.92C422.285 148.68 589.785 73.6932 774.799 73.6932ZM1225.93 292.547C1110.48 177.093 950.98 105.693 774.799 105.693C598.619 105.693 439.117 177.093 323.663 292.547C208.209 408 136.799 567.506 136.799 743.688C136.799 919.868 208.209 1079.37 323.663 1194.82C439.117 1310.28 598.619 1381.69 774.799 1381.69C950.98 1381.69 1110.48 1310.28 1225.93 1194.82C1341.39 1079.37 1412.8 919.868 1412.8 743.688C1412.8 567.506 1341.39 408 1225.93 292.547Z" fill="#231F20"/>
<mask id="mask0_1_111" style="mask-type:luminance" maskUnits="userSpaceOnUse" x="172" y="141" width="1205" height="1205">
<path fill-rule="evenodd" clip-rule="evenodd" d="M172.799 743.688C172.799 411.213 442.324 141.693 774.799 141.693C1107.27 141.693 1376.8 411.213 1376.8 743.688C1376.8 1076.16 1107.27 1345.69 774.799 1345.69C442.324 1345.69 172.799 1076.16 172.799 743.688Z" fill="white"/>
</mask>
<g mask="url(#mask0_1_111)">
<path d="M-59.4814 462.066H1609.08V-147.734H-59.4814V462.066Z" fill="#F47120"/>
<path d="M-59.4814 1071.88H1609.08V462.066H-59.4814V682.746V1071.88Z" fill="white"/>
<path d="M1609.08 1071.88H-59.4814V1635.11H1609.08V1071.88Z" fill="#29883B"/>
<path d="M803.531 766.978C803.531 782.848 790.657 795.714 774.791 795.714C758.916 795.714 746.053 782.848 746.053 766.978C746.053 751.106 758.916 738.236 774.791 738.236C790.657 738.236 803.531 751.106 803.531 766.978Z" fill="#283474"/>
<path d="M774.79 557.386L762.753 681.741L774.79 743.912L786.818 681.741L774.79 557.386Z" fill="#283474"/>
<path d="M774.79 976.562L786.818 852.213L774.79 790.036L762.753 852.213L774.79 976.562Z" fill="#283474"/>
<path d="M845.585 569.714L792.256 682.686L782.584 745.266L814.909 690.814L845.585 569.714Z" fill="#283474"/>
<path d="M703.988 964.237L757.328 851.262L767.005 788.686L734.667 843.137L703.988 964.237Z" fill="#283474"/>
<path d="M907.417 604.686L819.407 693.356L789.381 749.117L838.041 708.586L907.417 604.686Z" fill="#283474"/>
<path d="M642.172 929.272L730.165 840.589L760.203 784.83L711.531 825.364L642.172 929.272Z" fill="#283474"/>
<path d="M953.15 656.906L841.006 711.972L794.414 754.864L853.644 732.45L953.15 656.906Z" fill="#283474"/>
<path d="M596.44 877.05L708.579 821.986L755.171 779.09L695.943 801.504L596.44 877.05Z" fill="#283474"/>
<path d="M980.82 728.489L856.363 739.496L797.457 762.738L860.798 763.152L980.82 728.489Z" fill="#283474"/>
<path d="M568.767 805.465L693.211 794.457L752.113 771.212L688.788 770.797L568.767 805.465Z" fill="#283474"/>
<path d="M981.338 802.569L860.838 769.59L797.521 770.892L856.75 793.31L981.338 802.569Z" fill="#283474"/>
<path d="M568.25 731.381L688.75 764.357L752.064 763.06L692.832 740.644L568.25 731.381Z" fill="#283474"/>
<path d="M956.92 870.69L854.817 798.7L794.833 778.388L842.906 819.616L956.92 870.69Z" fill="#283474"/>
<path d="M592.667 663.266L694.772 735.254L754.756 755.566L706.682 714.342L592.667 663.266Z" fill="#283474"/>
<path d="M911.391 925.93L839.483 823.773L789.824 784.465L821.227 839.468L911.391 925.93Z" fill="#283474"/>
<path d="M638.192 608.028L710.1 710.173L759.76 749.484L728.359 694.486L638.192 608.028Z" fill="#283474"/>
<path d="M850.928 962.233L816.962 842.02L783.165 788.462L794.547 850.756L850.928 962.233Z" fill="#283474"/>
<path d="M698.645 571.709L732.608 691.936L766.419 745.482L755.04 683.189L698.645 571.709Z" fill="#283474"/>
<path d="M1004.51 800.853L990.166 798.738C990.166 798.738 989.153 804.485 988.15 810.228C987.504 813.074 986.865 815.92 986.382 818.054C986.138 819.121 985.942 820.009 985.784 820.633C985.618 821.246 985.524 821.598 985.524 821.598C981.651 820.602 977.697 821.253 974.488 822.978C972.886 823.842 971.457 824.986 970.324 826.357C969.193 827.734 968.152 829.296 967.581 831.092C966.985 832.882 966.801 834.721 966.966 836.533C967.101 838.325 967.516 840.066 968.284 841.732C969.817 845.021 972.588 847.896 976.293 849.417C976.293 849.417 976.149 849.744 975.929 850.34C975.693 850.938 975.373 851.785 974.891 852.784C974.008 854.773 972.799 857.428 971.597 860.094C971.041 861.434 970.324 862.721 969.712 863.94C969.089 865.153 968.519 866.282 968.008 867.261C967.021 869.206 966.359 870.51 966.359 870.51L979.103 877.4C979.103 877.4 979.687 876.281 980.697 874.308C981.211 873.318 981.821 872.121 982.521 870.742C983.209 869.365 984.057 867.829 984.809 866.088C985.591 864.358 986.437 862.47 987.336 860.497C987.776 859.496 988.23 858.481 988.698 857.428C989.141 856.386 989.556 855.282 989.988 854.176C990.857 851.965 991.753 849.689 992.666 847.362C993.549 845.021 994.291 842.602 995.109 840.21C996.824 835.438 998.061 830.517 999.365 825.948C999.517 825.376 999.675 824.812 999.845 824.249C999.961 823.681 1000.09 823.12 1000.22 822.564C1000.48 821.452 1000.73 820.357 1000.96 819.294C1001.44 817.178 1001.9 815.168 1002.31 813.317C1003.04 809.586 1003.52 806.465 1003.93 804.284C1004.29 802.1 1004.51 800.853 1004.51 800.853Z" fill="#283474"/>
<path d="M979.103 877.4L966.359 870.51C966.359 870.51 966.207 870.834 965.867 871.393C965.552 871.94 965.097 872.732 964.551 873.681C963.444 875.569 962.027 878.117 960.533 880.613C958.948 883.069 957.375 885.528 956.189 887.361C955.605 888.284 955.127 889.053 954.732 889.572C954.369 890.094 954.148 890.378 954.148 890.378C950.859 888.116 946.931 887.373 943.332 887.892C941.536 888.154 939.819 888.753 938.273 889.637C936.657 890.498 935.216 891.653 934.048 893.134C932.86 894.606 932.117 896.32 931.589 898.021C931.069 899.729 930.896 901.55 931.055 903.366C931.367 906.997 932.995 910.65 935.957 913.353C935.957 913.353 935.723 913.641 935.267 914.096C934.824 914.552 934.201 915.214 933.447 915.996C931.925 917.569 929.936 919.714 927.869 921.766C925.748 923.77 923.629 925.772 922.043 927.28C921.249 928.038 920.601 928.661 920.095 929.061C919.612 929.48 919.34 929.728 919.34 929.728L928.963 940.572C928.963 940.572 929.195 940.364 929.651 939.973C930.108 939.597 930.752 939.01 931.563 938.241C933.163 936.722 935.463 934.55 938.221 931.936C939.572 930.598 940.965 929.089 942.485 927.528C943.967 925.942 945.62 924.329 947.184 922.536C950.288 918.946 953.705 915.202 956.776 911.169C963.176 903.304 968.713 894.796 972.771 888.376C974.747 885.124 976.268 882.342 977.401 880.445C977.945 879.482 978.385 878.712 978.672 878.205C978.984 877.686 979.103 877.4 979.103 877.4Z" fill="#283474"/>
<path d="M928.963 940.572L919.34 929.728C919.34 929.728 918.233 930.674 916.569 932.092C914.916 933.521 912.732 935.473 910.405 937.217C908.092 938.998 905.825 940.832 904.06 942.12C902.279 943.394 901.081 944.225 901.081 944.225C898.753 940.972 895.336 938.944 891.785 938.241C890.9 938.061 890.017 937.985 889.107 937.957C888.197 937.917 887.286 937.957 886.388 938.1C884.594 938.36 882.863 938.986 881.265 940.012C879.704 941.066 878.315 942.249 877.26 943.705C876.207 945.162 875.428 946.824 874.957 948.609C874.063 952.198 874.267 956.044 876.143 959.621C876.143 959.621 874.838 960.272 872.889 961.272C871.926 961.768 870.784 962.353 869.56 962.962C868.353 963.598 867 964.145 865.673 964.772C863.007 965.941 860.384 967.204 858.355 968.021C856.311 968.816 854.96 969.36 854.96 969.36L860.303 982.834C860.303 982.834 861.485 982.364 863.541 981.557C864.596 981.166 865.817 980.606 867.222 979.972C868.628 979.348 870.21 978.618 871.954 977.84C875.452 976.358 879.341 974.226 883.577 972.102C884.112 971.83 884.647 971.544 885.179 971.272C885.7 970.972 886.229 970.673 886.764 970.376C887.817 969.762 888.899 969.152 889.975 968.541C891.056 967.918 892.147 967.294 893.243 966.668L894.88 965.721L896.479 964.692C898.623 963.342 900.757 961.973 902.865 960.636C903.916 959.985 904.928 959.269 905.932 958.556C906.923 957.856 907.908 957.162 908.88 956.474C909.845 955.788 910.796 955.109 911.731 954.458C912.668 953.808 913.578 953.16 914.421 952.466C916.141 951.132 917.764 949.87 919.263 948.697C922.291 946.409 924.63 944.265 926.322 942.836C928 941.39 928.963 940.572 928.963 940.572Z" fill="#283474"/>
<path d="M860.303 982.834L854.96 969.36C854.96 969.36 853.594 969.882 851.566 970.686C849.55 971.544 846.765 972.417 844.009 973.365C842.62 973.834 841.241 974.298 839.937 974.745C838.65 975.16 837.405 975.472 836.364 975.784C834.256 976.382 832.853 976.786 832.853 976.786C831.772 972.924 829.264 969.906 826.181 968.006C823.05 966.03 819.366 965.238 815.685 966.069C811.984 966.733 808.913 968.944 806.833 971.986C804.725 974.913 803.62 978.71 804.154 982.678C804.154 982.678 802.714 982.87 800.537 983.157C798.38 983.494 795.469 983.702 792.557 983.937C789.644 984.16 786.741 984.448 784.561 984.46C782.361 984.524 780.904 984.56 780.904 984.56L781.311 999.061C781.311 999.061 782.569 999.021 784.777 998.942C785.884 998.893 787.236 998.917 788.769 998.786C790.321 998.657 792.048 998.526 793.945 998.37C795.845 998.202 797.9 998.084 800.06 997.84C802.217 997.553 804.502 997.253 806.86 996.953C808.026 996.798 809.228 996.642 810.437 996.47C811.644 996.29 812.865 996.058 814.09 995.838C816.546 995.381 819.042 994.924 821.526 994.481C831.436 992.325 841.241 989.722 848.417 987.19C852.018 985.965 855.025 984.964 857.068 984.108C859.131 983.298 860.303 982.834 860.303 982.834Z" fill="#283474"/>
<path d="M781.311 999.061L780.904 984.56C780.904 984.56 779.446 984.6 777.278 984.668C775.078 984.732 772.166 984.6 769.253 984.56C767.781 984.536 766.327 984.524 764.964 984.46C763.596 984.365 762.321 984.276 761.244 984.209C759.06 984.056 757.603 983.949 757.603 983.949C757.917 979.933 756.588 976.262 754.34 973.408C752.088 970.478 748.89 968.452 745.145 968.006C741.412 967.346 737.787 968.372 734.78 970.517C731.803 972.61 729.462 975.746 728.618 979.673C728.618 979.673 727.186 979.348 725.054 978.866C723.988 978.618 722.738 978.346 721.412 978.048C720.086 977.696 718.684 977.293 717.28 976.902C714.484 976.098 711.649 975.384 709.567 974.693C707.499 973.99 706.12 973.532 706.12 973.532L701.557 987.29C701.557 987.29 702.75 987.697 704.858 988.397C705.916 988.776 707.202 989.138 708.684 989.554C710.177 989.97 711.857 990.44 713.678 990.945C717.316 992.066 721.66 992.949 726.29 994.014C727.445 994.262 728.618 994.574 729.825 994.769C731.022 994.989 732.248 995.197 733.469 995.408C735.923 995.838 738.421 996.262 740.905 996.693C743.432 997.005 745.939 997.305 748.408 997.616C749.641 997.762 750.866 997.916 752.088 998.06C753.298 998.202 754.493 998.242 755.69 998.346C760.425 998.67 764.833 999.073 768.642 999.061C770.542 999.085 772.284 999.125 773.829 999.165C775.365 999.202 776.704 999.214 777.821 999.165C780.033 999.085 781.311 999.061 781.311 999.061Z" fill="#283474"/>
<path d="M701.557 987.29L706.12 973.532C706.12 973.532 704.731 973.065 702.663 972.377C700.569 971.738 697.864 970.621 695.145 969.568C692.429 968.501 689.711 967.46 687.733 966.512C685.748 965.614 684.408 965.02 684.408 965.02C686.072 961.377 686.1 957.413 684.927 954.016C683.808 950.505 681.52 947.49 678.151 945.782C674.861 943.926 671.116 943.614 667.554 944.616C664.057 945.538 660.776 947.698 658.635 951.092C658.635 951.092 657.4 950.309 655.565 949.128C654.639 948.532 653.564 947.866 652.431 947.084C651.312 946.293 650.129 945.446 648.944 944.592C646.58 942.886 644.161 941.258 642.481 939.857C640.764 938.49 639.612 937.593 639.612 937.593L630.599 948.96C630.599 948.96 631.596 949.738 633.329 951.105C635.045 952.537 637.636 954.342 640.727 956.55C646.867 961.05 655.497 966.372 664.353 971.3C666.617 972.442 668.88 973.6 671.088 974.745C672.209 975.304 673.3 975.89 674.409 976.408C675.512 976.917 676.617 977.409 677.708 977.904C679.868 978.878 681.96 979.816 683.949 980.714C685.956 981.572 687.889 982.274 689.643 982.99C691.412 983.677 693.037 984.316 694.485 984.872C695.914 985.446 697.216 985.821 698.257 986.186C700.36 986.9 701.557 987.29 701.557 987.29Z" fill="#283474"/>
<path d="M630.598 948.96L639.612 937.593C639.612 937.593 638.464 936.694 636.75 935.329C635.045 933.98 632.888 932.002 630.676 930.102C629.584 929.141 628.45 928.218 627.464 927.268C626.476 926.318 625.564 925.434 624.772 924.681C623.186 923.16 622.133 922.157 622.133 922.157C624.968 919.272 626.281 915.641 626.449 911.952C626.513 910.116 626.253 908.298 625.67 906.605C625.072 904.889 624.097 903.366 622.888 901.898C621.665 900.469 620.181 899.362 618.544 898.593C617.728 898.205 616.866 897.894 615.98 897.674C615.098 897.438 614.242 897.257 613.329 897.178C609.726 896.828 605.878 897.777 602.708 900.221C602.708 900.221 601.809 899.076 600.456 897.35C599.142 895.605 597.505 893.186 595.801 890.82C594.072 888.466 592.55 885.97 591.381 884.138C590.198 882.29 589.417 881.068 589.417 881.068L577.066 888.677C577.066 888.677 577.753 889.741 578.933 891.601C580.145 893.461 581.773 896.189 584.018 899.246C585.116 900.808 586.294 902.485 587.56 904.253C588.169 905.164 588.842 906.046 589.557 906.945C590.248 907.842 590.974 908.766 591.705 909.7C592.434 910.638 593.189 911.588 593.928 912.55C594.686 913.512 595.437 914.486 596.268 915.421C597.893 917.309 599.546 919.233 601.198 921.146L602.433 922.589L603.734 923.966C604.605 924.892 605.476 925.801 606.318 926.697C607.177 927.605 608.022 928.502 608.869 929.388C609.284 929.83 609.712 930.272 610.13 930.714C610.558 931.132 610.989 931.548 611.42 931.96C614.862 935.214 617.972 938.388 620.898 940.82C622.329 942.069 623.638 943.21 624.797 944.225C625.966 945.238 626.984 946.121 627.866 946.788C629.61 948.165 630.598 948.96 630.598 948.96Z" fill="#283474"/>
<path d="M577.067 888.677L589.417 881.068C589.417 881.068 589.217 880.756 588.881 880.225C588.519 879.69 588.062 878.896 587.516 877.946C586.438 876.049 584.993 873.51 583.551 870.976C582.161 868.418 580.872 865.804 579.871 863.85C579.364 862.874 578.964 862.07 578.661 861.498C578.376 860.937 578.233 860.601 578.233 860.601C581.847 858.869 584.447 855.826 585.803 852.445C586.475 850.756 586.841 848.962 586.841 847.166C586.817 845.385 586.609 843.541 585.89 841.784C585.189 840.03 584.163 838.506 582.864 837.22C581.639 835.921 580.172 834.865 578.52 834.086C575.233 832.556 571.251 832.128 567.443 833.346C567.443 833.346 567.324 833.001 567.113 832.4C566.896 831.801 566.658 830.921 566.362 829.87C565.75 827.765 564.957 824.961 564.151 822.157C563.433 819.332 562.812 816.478 562.305 814.352C562.055 813.289 561.851 812.4 561.707 811.777C561.548 811.16 561.496 810.796 561.496 810.796L547.285 813.72C547.285 813.72 547.337 814.037 547.481 814.608C547.609 815.186 547.805 816.036 548.067 817.12C548.572 819.273 549.235 822.37 550.184 826.052C552.225 833.37 555.075 843.109 558.936 852.5C560.705 857.244 562.901 861.81 564.825 866.152C565.8 868.312 566.921 870.328 567.881 872.28C568.883 874.216 569.796 876.061 570.695 877.726C572.591 881.028 574.164 883.772 575.254 885.696C575.789 886.67 576.26 887.4 576.584 887.908C576.892 888.402 577.067 888.677 577.067 888.677Z" fill="#283474"/>
<path d="M547.285 813.72L561.496 810.796C561.496 810.796 561.24 809.364 560.848 807.209C560.65 806.137 560.417 804.882 560.17 803.538C559.938 802.188 559.638 800.758 559.47 799.31C559.089 796.417 558.716 793.525 558.429 791.353C558.273 790.274 558.197 789.364 558.157 788.732C558.105 788.093 558.077 787.733 558.077 787.733C562.055 787.345 565.541 785.393 567.96 782.68C569.169 781.321 570.08 779.769 570.718 778.089C571.405 776.409 571.757 774.594 571.705 772.704C571.665 770.814 571.13 769.029 570.442 767.382C569.756 765.733 568.714 764.233 567.429 762.946C564.853 760.365 561.261 758.6 557.256 758.438C557.256 758.438 557.275 758.068 557.287 757.429C557.327 756.797 557.388 755.886 557.464 754.796C557.623 752.612 557.817 749.701 558.039 746.796C558.728 741.004 559.42 735.209 559.42 735.209L545.076 733.096C545.076 733.096 544.918 734.35 544.645 736.55C544.384 738.746 543.956 741.884 543.58 745.657C543.452 747.55 543.293 749.602 543.149 751.776C543.069 752.862 542.993 753.977 542.908 755.114C542.877 755.685 542.837 756.26 542.797 756.837C542.773 757.426 542.773 758.009 542.757 758.605C542.681 763.356 542.449 768.424 542.709 773.488C542.81 776.021 542.828 778.553 542.993 781.04C543.192 783.526 543.384 785.976 543.58 788.344C543.684 789.529 543.762 790.693 543.878 791.832C544.02 792.962 544.162 794.074 544.306 795.15C544.597 797.313 544.853 799.353 545.101 801.238C545.321 803.129 545.688 804.828 545.947 806.354C546.232 807.878 546.464 809.198 546.659 810.293C547.063 812.473 547.285 813.72 547.285 813.72Z" fill="#283474"/>
<path d="M545.076 733.096L559.42 735.209C559.42 735.209 560.429 729.466 561.432 723.724C562.083 720.873 562.719 718.033 563.2 715.894C563.448 714.83 563.644 713.941 563.787 713.32C563.959 712.705 564.059 712.357 564.059 712.357C567.936 713.349 571.873 712.702 575.089 710.973C576.697 710.108 578.117 708.969 579.263 707.597C580.393 706.22 581.42 704.658 582.005 702.86C582.605 701.069 582.784 699.233 582.617 697.422C582.485 695.626 582.069 693.878 581.291 692.226C579.767 688.936 576.999 686.058 573.291 684.542C573.291 684.542 573.421 684.2 573.655 683.605C573.892 683.009 574.216 682.16 574.684 681.174C575.581 679.178 576.779 676.518 577.973 673.86C578.548 672.513 579.248 671.236 579.871 670.012C580.493 668.796 581.071 667.665 581.56 666.685C582.565 664.741 583.228 663.444 583.228 663.444L570.472 656.542C570.472 656.542 569.888 657.676 568.883 659.646C568.379 660.633 567.768 661.834 567.065 663.209C566.375 664.589 565.532 666.117 564.775 667.864C563.995 669.596 563.152 671.478 562.251 673.46C561.811 674.453 561.356 675.476 560.876 676.518C560.429 677.572 560.029 678.665 559.587 679.772C558.728 681.98 557.831 684.268 556.917 686.59C556.033 688.921 555.292 691.349 554.461 693.741C552.763 698.518 551.513 703.433 550.224 708C550.053 708.572 549.9 709.14 549.745 709.698C549.616 710.27 549.485 710.829 549.353 711.388C549.105 712.504 548.859 713.594 548.615 714.657C548.144 716.777 547.685 718.781 547.269 720.638C546.543 724.361 546.048 727.486 545.66 729.668C545.284 731.849 545.076 733.096 545.076 733.096Z" fill="#283474"/>
<path d="M570.472 656.542L583.228 663.444C583.228 663.444 583.384 663.114 583.708 662.564C584.033 662.012 584.489 661.22 585.021 660.273C586.127 658.388 587.544 655.832 589.053 653.336C590.627 650.88 592.212 648.426 593.381 646.588C593.981 645.668 594.463 644.896 594.839 644.381C595.217 643.865 595.425 643.569 595.425 643.569C598.724 645.833 602.653 646.578 606.245 646.06C608.051 645.796 609.767 645.2 611.313 644.312C612.927 643.462 614.355 642.298 615.529 640.817C616.723 639.348 617.453 637.634 617.997 635.926C618.516 634.22 618.687 632.405 618.535 630.586C618.204 626.954 616.592 623.296 613.629 620.598C613.629 620.598 613.864 620.31 614.304 619.856C614.747 619.397 615.385 618.738 616.136 617.949C617.66 616.378 619.647 614.244 621.717 612.181C623.825 610.181 625.943 608.174 627.527 606.668C628.333 605.913 628.985 605.284 629.48 604.884C629.963 604.469 630.247 604.23 630.247 604.23L620.624 593.382C620.624 593.382 620.38 593.59 619.936 593.976C619.469 594.354 618.819 594.934 618.021 595.705C616.427 597.232 614.127 599.406 611.365 602.02C610.015 603.353 608.607 604.862 607.1 606.426C605.607 608.018 603.969 609.616 602.405 611.412C599.299 615.005 595.88 618.741 592.808 622.782C586.411 630.645 580.86 639.153 576.803 645.577C574.839 648.824 573.303 651.6 572.188 653.516C571.644 654.476 571.195 655.229 570.911 655.745C570.599 656.256 570.472 656.542 570.472 656.542Z" fill="#283474"/>
<path d="M620.624 593.382L630.247 604.23C630.247 604.23 631.352 603.277 633.005 601.853C634.669 600.428 636.85 598.485 639.181 596.733C641.493 594.953 643.757 593.12 645.526 591.825C647.308 590.56 648.505 589.72 648.505 589.72C650.832 592.98 654.253 594.998 657.788 595.708C658.686 595.894 659.569 595.961 660.482 596.004C661.389 596.038 662.302 595.992 663.186 595.857C664.976 595.588 666.724 594.962 668.305 593.945C669.881 592.894 671.272 591.705 672.329 590.24C673.38 588.785 674.158 587.124 674.613 585.345C675.512 581.76 675.316 577.905 673.432 574.34C673.432 574.34 674.742 573.67 676.693 572.681C677.656 572.186 678.798 571.602 680.024 570.98C681.233 570.353 682.586 569.8 683.912 569.189C686.564 568.013 689.206 566.733 691.234 565.933C693.276 565.133 694.628 564.6 694.628 564.6L689.27 551.12C689.27 551.12 688.097 551.586 686.032 552.4C684.99 552.786 683.769 553.333 682.366 553.973C680.961 554.613 679.36 555.333 677.632 556.106C674.13 557.586 670.245 559.72 666.005 561.853C665.474 562.12 664.942 562.4 664.408 562.68C663.885 562.973 663.35 563.266 662.818 563.573C661.769 564.186 660.686 564.8 659.609 565.413C658.526 566.04 657.437 566.653 656.342 567.28L654.705 568.236L653.093 569.25C650.957 570.616 648.832 571.976 646.724 573.313C645.666 573.969 644.656 574.681 643.653 575.39C642.666 576.093 641.674 576.789 640.702 577.476C639.744 578.161 638.79 578.833 637.853 579.496C636.917 580.146 636.01 580.8 635.149 581.485C633.445 582.82 631.82 584.09 630.326 585.254C627.296 587.542 624.954 589.684 623.25 591.11C621.574 592.556 620.624 593.382 620.624 593.382Z" fill="#283474"/>
<path d="M689.271 551.12L694.628 564.6C694.628 564.6 695.979 564.066 698.02 563.266C700.036 562.4 702.815 561.546 705.576 560.586C706.955 560.12 708.344 559.653 709.631 559.213C710.935 558.8 712.169 558.48 713.22 558.173C715.328 557.56 716.732 557.16 716.732 557.16C717.799 561.04 720.321 564.04 723.401 565.946C726.536 567.921 730.204 568.706 733.885 567.885C737.602 567.213 740.661 565 742.753 561.96C744.845 559.04 745.964 555.24 745.429 551.266C745.429 551.266 746.875 551.08 749.045 550.8C751.205 550.453 754.12 550.253 757.031 550.013C759.931 549.786 762.841 549.506 765.029 549.506C767.212 549.44 768.667 549.386 768.667 549.386L768.279 534.893C768.279 534.893 767.017 534.933 764.79 535C763.69 535.053 762.347 535.04 760.801 535.173C759.267 535.293 757.523 535.426 755.639 535.586C753.741 535.746 751.685 535.866 749.529 536.106C747.356 536.386 745.077 536.693 742.725 537C741.556 537.16 740.359 537.306 739.136 537.48C737.941 537.666 736.72 537.906 735.498 538.12C733.042 538.56 730.543 539.013 728.048 539.48C718.151 541.64 708.332 544.24 701.169 546.773C697.567 547.986 694.561 548.986 692.505 549.84C690.453 550.653 689.271 551.12 689.271 551.12Z" fill="#283474"/>
<path d="M768.278 534.893L768.666 549.386C768.666 549.386 770.124 549.346 772.308 549.28C774.508 549.213 777.421 549.346 780.333 549.386C781.79 549.426 783.256 549.44 784.612 549.48C785.974 549.586 787.249 549.666 788.342 549.746C790.526 549.906 791.984 550 791.984 550C791.657 554.013 792.998 557.68 795.245 560.56C797.498 563.48 800.68 565.493 804.438 565.946C808.158 566.6 811.802 565.586 814.805 563.44C817.781 561.333 820.121 558.213 820.966 554.28C820.966 554.28 822.397 554.6 824.532 555.08C825.598 555.333 826.832 555.6 828.173 555.906C829.496 556.253 830.889 556.666 832.306 557.053C835.105 557.853 837.936 558.573 840.005 559.266C842.084 559.96 843.465 560.413 843.465 560.413L848.026 546.653C848.026 546.653 846.817 546.253 844.726 545.56C843.67 545.173 842.384 544.8 840.888 544.4C839.402 543.986 837.729 543.506 835.896 543C832.269 541.893 827.922 541 823.294 539.933C822.14 539.693 820.966 539.386 819.761 539.173C818.562 538.973 817.341 538.76 816.117 538.546C813.66 538.12 811.161 537.693 808.669 537.253C806.157 536.946 803.646 536.653 801.176 536.346C799.945 536.186 798.704 536.04 797.498 535.893C796.288 535.746 795.078 535.706 793.896 535.6C789.164 535.28 784.756 534.88 780.944 534.893C779.046 534.853 777.305 534.826 775.757 534.786C774.22 534.746 772.866 534.733 771.764 534.786C769.549 534.853 768.278 534.893 768.278 534.893Z" fill="#283474"/>
<path d="M848.027 546.653L843.465 560.413C843.465 560.413 844.843 560.88 846.924 561.573C849.016 562.213 851.723 563.32 854.427 564.386C857.153 565.44 859.873 566.48 861.849 567.426C863.841 568.333 865.167 568.929 865.167 568.929C863.515 572.577 863.489 576.542 864.644 579.938C865.777 583.454 868.065 586.46 871.436 588.168C874.709 590.02 878.457 590.334 882.017 589.341C885.529 588.404 888.808 586.256 890.952 582.858C890.952 582.858 892.175 583.65 894.021 584.829C894.932 585.432 896.022 586.09 897.156 586.864C898.258 587.662 899.456 588.508 900.641 589.353C903.009 591.064 905.425 592.692 907.099 594.098C908.819 595.454 909.977 596.358 909.977 596.358L918.988 584.997C918.988 584.997 917.987 584.216 916.243 582.844C914.541 581.426 911.939 579.605 908.847 577.397C902.721 572.904 894.073 567.573 885.217 562.653C882.966 561.506 880.709 560.346 878.483 559.213C877.376 558.64 876.287 558.066 875.176 557.533C874.063 557.04 872.956 556.533 871.879 556.053C869.719 555.08 867.625 554.133 865.633 553.24C863.633 552.386 861.693 551.666 859.94 550.96C858.16 550.28 856.543 549.64 855.101 549.08C853.675 548.506 852.373 548.133 851.329 547.76C849.224 547.053 848.027 546.653 848.027 546.653Z" fill="#283474"/>
<path d="M918.988 584.997L909.977 596.358C909.977 596.358 911.108 597.262 912.824 598.618C914.541 599.976 916.7 601.949 918.912 603.845C920.003 604.817 921.133 605.733 922.111 606.686C923.097 607.633 924.02 608.517 924.813 609.273C926.387 610.788 927.438 611.797 927.438 611.797C924.619 614.677 923.301 618.304 923.136 622C923.06 623.833 923.32 625.65 923.916 627.352C924.503 629.056 925.492 630.586 926.684 632.056C927.921 633.486 929.403 634.585 931.04 635.358C931.861 635.746 932.708 636.052 933.603 636.281C934.476 636.509 935.347 636.696 936.255 636.776C939.847 637.124 943.708 636.177 946.879 633.73C946.879 633.73 947.776 634.876 949.115 636.601C950.443 638.353 952.081 640.76 953.773 643.136C955.515 645.485 957.022 647.974 958.205 649.817C959.39 651.658 960.169 652.889 960.169 652.889L972.511 645.284C972.511 645.284 971.836 644.214 970.65 642.348C969.428 640.486 967.812 637.766 965.564 634.696C964.475 633.146 963.292 631.466 962.027 629.692C961.419 628.793 960.741 627.908 960.027 627.006C959.327 626.109 958.609 625.186 957.879 624.254C957.14 623.317 956.397 622.366 955.657 621.408C954.903 620.438 954.133 619.465 953.315 618.533C951.693 616.641 950.04 614.724 948.391 612.805L947.138 611.366L945.852 609.986C944.981 609.069 944.111 608.156 943.265 607.252C942.407 606.345 941.545 605.449 940.717 604.56C940.286 604.121 939.875 603.677 939.455 603.246C939.024 602.825 938.597 602.406 938.169 601.994C934.708 598.732 931.615 595.561 928.691 593.132C927.261 591.886 925.944 590.741 924.775 589.729C923.616 588.712 922.603 587.832 921.72 587.157C919.975 585.782 918.988 584.997 918.988 584.997Z" fill="#283474"/>
<path d="M972.51 645.284L960.169 652.889C960.169 652.889 960.365 653.198 960.704 653.738C961.068 654.261 961.508 655.058 962.054 656.005C963.133 657.905 964.589 660.434 966.035 662.97C967.428 665.537 968.699 668.154 969.712 670.094C970.211 671.072 970.626 671.881 970.909 672.454C971.209 673.017 971.353 673.353 971.353 673.353C967.736 675.082 965.124 678.124 963.768 681.5C963.096 683.198 962.745 684.986 962.745 686.782C962.757 688.564 962.98 690.417 963.694 692.165C964.381 693.924 965.421 695.449 966.721 696.729C967.944 698.029 969.413 699.09 971.066 699.862C974.356 701.4 978.336 701.824 982.145 700.605C982.145 700.605 982.261 700.95 982.469 701.554C982.692 702.15 982.924 703.03 983.224 704.085C983.823 706.184 984.629 708.99 985.424 711.798C986.151 714.626 986.773 717.47 987.284 719.6C987.532 720.665 987.736 721.552 987.879 722.174C988.036 722.794 988.088 723.154 988.088 723.154L1002.29 720.234C1002.29 720.234 1002.25 719.917 1002.1 719.34C1001.97 718.765 1001.78 717.916 1001.52 716.834C1001 714.678 1000.35 711.581 999.387 707.902C997.359 700.58 994.512 690.833 990.65 681.46C988.881 676.705 986.685 672.137 984.745 667.8C983.771 665.632 982.665 663.626 981.691 661.676C980.697 659.741 979.793 657.89 978.882 656.225C976.998 652.926 975.419 650.177 974.329 648.253C973.781 647.288 973.329 646.542 973.005 646.049C972.678 645.549 972.51 645.284 972.51 645.284Z" fill="#283474"/>
<path d="M1002.29 720.234L988.088 723.154C988.088 723.154 988.347 724.588 988.737 726.738C988.933 727.814 989.169 729.072 989.412 730.413C989.632 731.762 989.948 733.19 990.103 734.644C990.495 737.53 990.857 740.424 991.154 742.596C991.313 743.68 991.389 744.584 991.429 745.222C991.484 745.858 991.508 746.216 991.508 746.216C987.516 746.604 984.043 748.556 981.627 751.268C980.413 752.628 979.509 754.178 978.853 755.86C978.177 757.548 977.829 759.357 977.881 761.248C977.917 763.129 978.453 764.922 979.14 766.572C979.831 768.216 980.872 769.72 982.157 771.012C984.733 773.586 988.32 775.352 992.327 775.517C992.327 775.517 992.315 775.884 992.303 776.52C992.248 777.153 992.196 778.065 992.12 779.154C991.964 781.34 991.753 784.248 991.545 787.162C990.857 792.948 990.166 798.738 990.166 798.738L1004.51 800.853C1004.51 800.853 1004.67 799.6 1004.94 797.404C1005.19 795.202 1005.61 792.07 1006.01 788.296C1006.14 786.401 1006.29 784.345 1006.44 782.176C1006.51 781.09 1006.59 779.976 1006.68 778.837C1006.71 778.266 1006.75 777.692 1006.79 777.112C1006.8 776.528 1006.81 775.938 1006.83 775.342C1006.9 770.596 1007.12 765.525 1006.88 760.469C1006.77 757.933 1006.76 755.394 1006.59 752.908C1006.39 750.424 1006.2 747.978 1006.01 745.61C1005.9 744.426 1005.82 743.258 1005.71 742.125C1005.56 740.989 1005.42 739.882 1005.28 738.796C1004.99 736.642 1004.73 734.601 1004.47 732.71C1004.27 730.824 1003.89 729.121 1003.64 727.597C1003.35 726.076 1003.12 724.753 1002.92 723.656C1002.52 721.478 1002.29 720.234 1002.29 720.234Z" fill="#283474"/>
</g>
<path d="M1737.28 465.413L1781.56 603.451L1825.69 465.413H1888.67V663.819H1840.71V617.496L1845.32 522.667L1797.36 663.819H1765.75L1717.65 522.52L1722.31 617.496V663.819H1674.44V465.413H1737.28ZM2034.19 626.705H1968.65L1957.21 663.819H1906.11L1978.89 465.413H2023.81L2097.16 663.819H2045.77L2034.19 626.705ZM1980.11 589.869H2022.75L2001.36 520.987L1980.11 589.869ZM2111.59 663.819V465.413H2175.48C2193.01 465.413 2208.79 469.36 2222.79 477.32C2236.79 485.267 2247.71 496.48 2255.52 510.987C2263.39 525.507 2267.39 541.733 2267.48 559.733V568.848C2267.48 586.987 2263.61 603.311 2255.95 617.681C2248.27 632.1 2237.48 643.355 2223.53 651.493C2209.57 659.633 2194.04 663.725 2176.88 663.819H2111.59ZM2159.44 502.24V626.984H2176.04C2189.76 626.984 2200.32 622.1 2207.67 612.333C2215.01 602.567 2218.69 588.056 2218.69 568.755V560.2C2218.69 540.987 2215.01 526.573 2207.67 516.853C2200.32 507.133 2189.57 502.24 2175.48 502.24H2159.44ZM2415.05 579.544H2339.85V626.984H2428.68V663.819H2291.99V465.413H2428.96V502.24H2339.85V544.107H2415.05V579.544ZM2568.57 663.819H2520.91V465.413H2568.57V663.819ZM2767.49 663.819H2719.96L2649.64 540.333V663.819H2601.83V465.413H2649.64L2719.83 588.893V465.413H2767.49V663.819Z" fill="#231F20"/>
</svg>
